<svg width="96" height="96" xmlns="http://www.w3.org/2000/svg" xmlns:xlink="http://www.w3.org/1999/xlink" overflow="hidden"><defs><clipPath id="clip0"><rect x="233" y="225" width="96" height="96"/></clipPath></defs><g clip-path="url(#clip0)" transform="translate(-233 -225)"><path d="M321 272C321 268.7 318.3 266 315 266L296 266C294.4 266 293.1 264.7 293 263.1 293.1 261.3 296 257.7 296 244 296 240.7 293.3 238 290 238 286.7 238 284 240.7 284 244 284 259.2 266.3 267.8 266 268L266 300C273.1 300 273.6 308 287 308 291.5 308 305 308 305 308 308.3 308 311 305.3 311 302 311 300.4 310.4 299 309.4 298 309.6 298 309.8 298 310 298 313.3 298 316 295.3 316 292 316 290.4 315.4 288.9 314.3 287.8 317 287.2 319 284.8 319 282 319 280.3 318.3 278.7 317.1 277.6 319.4 276.8 321 274.6 321 272Z" fill="#FE4A60"/><path d="M256 263 241 263 241 305 256 305C258.2 305 260 303.2 260 301L260 267C260 264.8 258.2 263 256 263Z" fill="#FE4A60"/></g></svg>