<svg width="96" height="96" xmlns="http://www.w3.org/2000/svg" xmlns:xlink="http://www.w3.org/1999/xlink" overflow="hidden"><defs><clipPath id="clip0"><rect x="245" y="410" width="96" height="96"/></clipPath></defs><g clip-path="url(#clip0)" transform="translate(-245 -410)"><path d="M333 457C333 453.7 330.3 451 327 451L308 451C306.4 451 305.1 449.7 305 448.1 305.1 446.3 308 442.7 308 429 308 425.7 305.3 423 302 423 298.7 423 296 425.7 296 429 296 444.2 278.3 452.8 278 453L278 485C285.1 485 285.6 493 299 493 303.5 493 317 493 317 493 320.3 493 323 490.3 323 487 323 485.4 322.4 484 321.4 483 321.6 483 321.8 483 322 483 325.3 483 328 480.3 328 477 328 475.4 327.4 473.9 326.3 472.8 329 472.2 331 469.8 331 467 331 465.3 330.3 463.7 329.1 462.6 331.4 461.8 333 459.6 333 457Z" fill="#707070"/><path d="M268 448 253 448 253 490 268 490C270.2 490 272 488.2 272 486L272 452C272 449.8 270.2 448 268 448Z" fill="#707070"/></g></svg>